# xmcd
#
# Track frame offsets:
#	150
#	14574
#	32137
#	48414
#	64311
#	80713
#
# Disc length: 1291 seconds
#
# Revision: 0
# Processed by: cddbd v1.5.2PL0 Copyright (c) Steve Scherf et al.
# Submitted via: dBpowerAMP V4.0
#
DISCID=4f050906
DTITLE=Codie Prevost - Spin 6-Pak Vol. 1
DYEAR=1900
DGENRE=
TTITLE0=Spin
TTITLE1=Good Living
TTITLE2=Call Me When You Get There
TTITLE3=One of Those Days
TTITLE4=Quicksand
TTITLE5=Breathtaking
EXTD=
EXTT0=
EXTT1=
EXTT2=
EXTT3=
EXTT4=
EXTT5=
PLAYORDER=
